<svg width="229" height="44" viewBox="0 0 229 44" fill="none" xmlns="http://www.w3.org/2000/svg">
<path d="M13.655 32.0562H6.76599L-2.47955e-05 11.8811H7.29907L10.4155 23.6499L13.655 11.8811H20.5441L13.655 32.0562Z" fill="#31F3A2"/>
<path d="M47.5785 17.991H41.5506C41.4959 17.2529 41.2635 16.7198 40.8535 16.3918C40.4434 16.0364 39.7463 15.8587 38.7621 15.8587C36.9852 15.8587 36.0967 16.2961 36.0967 17.1709C36.0967 17.7997 36.8895 18.3328 38.4751 18.7701C41.8376 19.6723 43.9836 20.3557 44.9131 20.8205C46.9634 22.078 48.0432 23.7592 48.1526 25.8642C48.1526 28.0512 47.4555 29.7188 46.0612 30.867C44.6944 32.0151 42.3297 32.5892 38.9672 32.5892C35.9327 32.5892 33.5544 31.9605 31.8321 30.7029C30.1098 29.4454 29.2214 27.7368 29.1667 25.5772H35.8507C35.8507 26.2606 36.1378 26.8347 36.7118 27.2994C37.2859 27.7368 38.065 27.9555 39.0492 27.9555C40.9081 27.9555 41.8376 27.5318 41.8376 26.6843C41.8376 26.1923 41.7009 25.8232 41.4276 25.5772C41.1542 25.3038 40.6074 25.0714 39.7873 24.8801C35.9601 23.9779 33.3493 22.9664 31.9551 21.8456C30.5883 20.7248 29.9048 19.1665 29.9048 17.1709C29.9048 15.476 30.6156 14.0818 32.0371 12.9883C33.4587 11.8948 35.755 11.348 38.9262 11.348C41.8239 11.348 43.9563 11.9221 45.3231 13.0703C46.69 14.1911 47.4418 15.8314 47.5785 17.991Z" fill="#31F3A2"/>
<path d="M49.4459 11.8811H56.0478V24.675C56.0478 26.5067 56.95 27.4225 58.7543 27.4225C60.5859 27.4225 61.5017 26.5067 61.5017 24.675V11.8811H68.0627V32.0562H61.8297V29.9238C60.7636 31.7008 58.9456 32.5892 56.3759 32.5892C54.3529 32.5892 52.6853 32.0151 51.3731 30.867C50.0883 29.6915 49.4459 28.2289 49.4459 26.4793V11.8811Z" fill="#31F3A2"/>
<path d="M81.7119 24.224L81.7529 22.9528C81.3429 23.2808 80.5228 23.5815 79.2926 23.8549C78.0351 24.183 77.1603 24.5383 76.6682 24.9211C76.2034 25.2765 75.9711 25.7549 75.9711 26.3563C75.9711 27.3951 76.5725 27.9145 77.7753 27.9145C79.1149 27.9145 80.0854 27.5591 80.6868 26.8484C81.3155 26.1376 81.6573 25.2628 81.7119 24.224ZM88.2319 32.0562H82.7781C82.5047 31.6188 82.3407 31.0583 82.286 30.3749C81.3839 31.8511 79.3883 32.5892 76.2991 32.5892C71.8705 32.5892 69.6561 30.5389 69.6561 26.4383C69.6561 25.5362 69.8202 24.7434 70.1482 24.0599C70.4762 23.3492 70.9 22.7614 71.4194 22.2967C71.9388 21.8046 72.6222 21.3809 73.4697 21.0255C74.3172 20.6701 75.1783 20.3967 76.0531 20.2054C76.9279 19.9867 77.9667 19.7816 79.1696 19.5903C80.1537 19.4536 80.8098 19.2622 81.1379 19.0162C81.4932 18.7428 81.6709 18.3328 81.6709 17.786C81.6709 17.3213 81.4112 16.9659 80.8918 16.7198C80.3997 16.4738 79.7983 16.3508 79.0875 16.3508C77.2559 16.3508 76.2718 17.0479 76.1351 18.4421H70.3122C70.4489 13.7127 73.4834 11.348 79.4156 11.348C82.5867 11.348 84.8421 12.0178 86.1816 13.3573C87.5485 14.6695 88.2319 16.6515 88.2319 19.3032V32.0562Z" fill="#31F3A2"/>
<path d="M96.9329 32.0562H90.3719V0H96.9329V32.0562Z" fill="#31F3A2"/>
<path d="M121.985 32.0562H115.26L112.8 22.2147L110.339 32.0562H103.655L98.0785 11.8811H104.968L107.551 23.1578L109.478 11.8811H116.121L118.541 23.1578L120.878 11.8811H127.603L121.985 32.0562Z" fill="#31F3A2"/>
<path d="M154.956 17.991H148.928C148.873 17.2529 148.641 16.7198 148.231 16.3918C147.821 16.0364 147.124 15.8587 146.14 15.8587C144.363 15.8587 143.474 16.2961 143.474 17.1709C143.474 17.7997 144.267 18.3328 145.853 18.7701C149.215 19.6723 151.361 20.3557 152.29 20.8205C154.341 22.078 155.421 23.7592 155.53 25.8642C155.53 28.0512 154.833 29.7188 153.439 30.867C152.072 32.0151 149.707 32.5892 146.345 32.5892C143.31 32.5892 140.932 31.9605 139.21 30.7029C137.487 29.4454 136.599 27.7368 136.544 25.5772H143.228C143.228 26.2606 143.515 26.8347 144.089 27.2994C144.663 27.7368 145.442 27.9555 146.427 27.9555C148.286 27.9555 149.215 27.5318 149.215 26.6843C149.215 26.1923 149.078 25.8232 148.805 25.5772C148.532 25.3038 147.985 25.0714 147.165 24.8801C143.337 23.9779 140.727 22.9664 139.333 21.8456C137.966 20.7248 137.282 19.1665 137.282 17.1709C137.282 15.476 137.993 14.0818 139.415 12.9883C140.836 11.8948 143.132 11.348 146.304 11.348C149.201 11.348 151.334 11.9221 152.701 13.0703C154.067 14.1911 154.819 15.8314 154.956 17.991Z" fill="#31F3A2"/>
<path d="M199.428 24.757H206.03C205.757 27.0807 204.731 28.967 202.955 30.4159C201.178 31.8648 199.032 32.5892 196.517 32.5892C193.619 32.5892 191.309 31.6598 189.587 29.8008C187.892 27.9419 187.044 25.2491 187.044 21.7226C187.044 18.2234 187.892 15.6263 189.587 13.9314C191.309 12.2092 193.673 11.348 196.681 11.348C199.387 11.348 201.588 12.0451 203.283 13.4393C204.977 14.8336 205.907 16.7198 206.071 19.0982H199.469C199.332 18.3874 199.004 17.827 198.485 17.4169C197.965 16.9795 197.35 16.7608 196.64 16.7608C194.562 16.7608 193.523 18.3601 193.523 21.5586C193.523 23.3082 193.81 24.675 194.384 25.6592C194.986 26.616 195.683 27.0944 196.476 27.0944C197.296 27.0944 197.979 26.903 198.526 26.5203C199.073 26.1103 199.373 25.5225 199.428 24.757Z" fill="#31F3A2"/>
<path d="M217.565 27.0944C218.932 27.0944 219.916 26.6843 220.518 25.8642C221.146 25.0441 221.461 23.7456 221.461 21.9686C221.461 20.1917 221.146 18.9068 220.518 18.1141C219.889 17.2939 218.905 16.8839 217.565 16.8839C216.226 16.8839 215.242 17.2803 214.613 18.073C214.011 18.8658 213.711 20.1644 213.711 21.9686C213.711 23.7729 214.011 25.0851 214.613 25.9052C215.242 26.698 216.226 27.0944 217.565 27.0944ZM217.565 32.5892C214.285 32.5892 211.688 31.6187 209.774 29.6778C207.888 27.7368 206.945 25.1671 206.945 21.9686C206.945 18.7428 207.901 16.1731 209.815 14.2595C211.729 12.3185 214.312 11.348 217.565 11.348C220.791 11.348 223.347 12.3185 225.233 14.2595C227.12 16.1731 228.063 18.7428 228.063 21.9686C228.063 25.1945 227.106 27.7778 225.192 29.7188C223.306 31.6324 220.764 32.5892 217.565 32.5892Z" fill="#31F3A2"/>
<path d="M169.958 20.4473H163.438C163.547 19.2991 163.861 18.4653 164.381 17.9459C164.9 17.4265 165.666 17.1668 166.677 17.1668C168.673 17.1668 169.766 18.2603 169.958 20.4473ZM157 24.2608H170.04C169.958 25.2997 169.589 26.1881 168.932 26.9262C168.276 27.6644 167.497 28.0334 166.595 28.0334C165.939 28.0334 165.365 27.9104 164.873 27.6644C164.353 27.4183 164.039 27.1176 163.93 26.7622H157.205C157.833 28.8125 158.954 30.4118 160.567 31.5599C162.153 32.6808 164.053 33.2412 166.267 33.2412C173.156 33.2412 176.601 29.578 176.601 22.2515C176.601 19.1077 175.726 16.62 173.976 14.7884C172.199 12.9295 169.753 12 166.636 12C163.684 12 161.319 12.8748 159.542 14.6244C157.765 16.3467 156.877 18.8344 156.877 22.0875C156.877 22.7983 156.918 23.5227 157 24.2608Z" fill="#31F3A2"/>
<circle cx="132.044" cy="4" r="4" fill="#31F3A2"/>
<circle cx="4" cy="4" r="4" transform="matrix(1 0 0 -1 21.0439 44)" fill="#31F3A2"/>
<circle cx="182.044" cy="29" r="4" fill="#31F3A2"/>
<rect x="129.044" y="12" width="6" height="20" fill="#31F3A2"/>
<rect width="6" height="20" transform="matrix(1 0 0 -1 22.0439 32)" fill="#31F3A2"/>
</svg>
